<?xml version="1.0" encoding="utf-8"?>
<svg version="1.1" id="Layer_1" xmlns="http://www.w3.org/2000/svg" xmlns:xlink="http://www.w3.org/1999/xlink" x="0px" y="0px"
	 viewBox="0 0 32 32" style="enable-background:new 0 0 32 32;" xml:space="preserve">
<style type="text/css">
	.st0{fill:#808080;}
</style>
<g>
	<path class="st0" d="M10.023,5.014c0,2.769-2.245,5.014-5.014,5.014s-5.014-2.245-5.014-5.014S2.24,0,5.009,0
		S10.023,2.245,10.023,5.014z M8.313,1.705C7.637,1.028,6.975,0.594,6.834,0.734s0.294,0.803,0.971,1.479s1.339,1.111,1.479,0.971
		C9.424,3.044,8.99,2.381,8.313,1.705z"/>
</g>
<g>
	<path class="st0" d="M32.005,19.465C32.005,26.388,26.393,32,19.47,32S6.935,26.388,6.935,19.465S12.547,6.929,19.47,6.929
		S32.005,12.542,32.005,19.465z M27.731,11.192c-1.691-1.691-3.347-2.778-3.698-2.426c-0.351,0.351,0.735,2.007,2.426,3.698
		c1.691,1.691,3.347,2.778,3.698,2.426C30.508,14.539,29.422,12.883,27.731,11.192z"/>
</g>
</svg>
