<?xml version="1.0" encoding="UTF-8"?><svg xmlns="http://www.w3.org/2000/svg" width="1024" height="1024" xmlns:xlink="http://www.w3.org/1999/xlink" viewBox="0 0 1024 1024"><defs><clipPath id="clippath"><rect width="1024" height="1024" rx="230.632" ry="230.632" fill="none"/></clipPath></defs><g id="G"><g clip-path="url(#clippath)"><rect x="-123.859" y="-176.865" width="1401.129" height="1000.049" fill="#f2f2f2"/><path d="M991.865,649.589v-153.053l-212.256.342v58.789h147.314v93.311c-14.131,12.534-34.863,24.326-62.207,35.376-27.344,11.056-55.371,16.577-84.082,16.577-33.041,0-64.258-7.29-93.651-21.875-29.395-14.579-51.782-36.914-67.163-66.992s-23.071-67.446-23.071-112.109c0-36.23,6.376-69.839,19.141-100.83,7.52-17.998,18.057-34.521,31.616-49.561,20.341-22.56,43.019-31.853,53.491-36.401,57.885-25.14,111.412-11.218,120.52-8.706,17.488,4.823,48.944,13.497,74.987,43.057,24.137,27.397,30.354,57.672,32.269,71.131,5.018-5.832,41.128-49.174,29.08-102.258-7.69-33.883-31.018-54.187-41.338-63.169-27.029-23.526-55.53-30.11-80.393-35.569-61.269-13.453-111.421-2.93-134.724,2.37-21.366,4.86-58.712,13.702-98.745,39.807-26.198,17.083-54.255,42.022-85.935,89.652-69.078,103.859-46.996,152.659-98.903,230.976-43.54,65.693-102.694,97.167-140.466,117.264-89.74,47.748-156.866,42.701-309.466,56.691-71.378,6.544-172.294,18.247-294.436,40.873,16.575,59.279,144.392,491.653,522.994,632.54,415.228,154.516,983.669-96.817,1236.81-660.81-147.123-4.201-328.251-43.656-441.386-117.423Z" fill="#0071bc"/><g id="Bubbles"><circle cx="524.428" cy="512" r="7.709" fill="#f2f2f2"/><circle cx="532.137" cy="527.418" r="7.709" fill="#f2f2f2"/><circle cx="524.428" cy="546.227" r="7.709" fill="#f2f2f2"/><circle cx="537.721" cy="559.037" r="7.709" fill="#f2f2f2"/><circle cx="527.499" cy="580.454" r="7.709" fill="#f2f2f2"/><circle cx="545.43" cy="595.956" r="7.709" fill="#f2f2f2"/><circle cx="545.43" cy="629.846" r="7.709" fill="#f2f2f2"/><circle cx="562.699" cy="650.914" r="7.709" fill="#f2f2f2"/><circle cx="584.078" cy="678.068" r="7.709" fill="#f2f2f2"/><circle cx="594.945" cy="701.754" r="7.709" fill="#f2f2f2"/><circle cx="618.945" cy="709.463" r="7.709" fill="#f2f2f2"/><circle cx="642.945" cy="738.374" r="7.709" fill="#f2f2f2"/><circle cx="681.227" cy="742.55" r="7.709" fill="#f2f2f2"/><circle cx="718.92" cy="761.698" r="7.709" fill="#f2f2f2"/><circle cx="778.405" cy="761.698" r="7.709" fill="#f2f2f2"/><circle cx="836.712" cy="768.034" r="7.709" fill="#f2f2f2"/><circle cx="905.412" cy="737.909" r="7.709" fill="#f2f2f2"/><circle cx="969.08" cy="694.755" r="3.673" fill="#f2f2f2"/><circle cx="870.356" cy="747.65" r="3.673" fill="#f2f2f2"/><circle cx="809.178" cy="775.745" r="3.673" fill="#f2f2f2"/><circle cx="642.945" cy="720.845" r="3.673" fill="#f2f2f2"/><circle cx="567.779" cy="670.359" r="3.673" fill="#f2f2f2"/><circle cx="609.08" cy="697.718" r="3.673" fill="#f2f2f2"/><circle cx="622.618" cy="732.771" r="3.673" fill="#f2f2f2"/><circle cx="554.99" cy="612.902" r="3.673" fill="#f2f2f2"/><circle cx="516.719" cy="566.746" r="3.673" fill="#f2f2f2"/></g></g></g><g id="D"><path d="M42.004,765.517c0-5.048,0-10.095,0-15.143,0-171.311,0-342.621,0-513.932h186.607c40.414,0,70.634,2.468,92.39,7.544,30.75,7.081,57.475,20.164,79.395,38.875,28.096,23.741,49.415,54.483,63.312,91.327,13.639,36.18,20.554,77.917,20.554,124.057,0,39.25-4.687,74.652-13.929,105.224-9.293,30.74-21.483,56.686-36.229,77.115-14.813,20.521-31.365,36.974-49.198,48.902-17.814,11.918-39.442,21.031-64.283,27.087-24.326,5.935-52.524,8.943-83.809,8.943H42.004ZM229.295,678.386c31.404,0,56.101-2.871,73.404-8.534,16.601-5.433,29.858-13.027,39.401-22.57,14.088-14.088,25.309-33.567,33.35-57.897,8.263-25.008,12.452-56.017,12.452-92.165,0-49.543-7.991-87.738-23.751-113.524-15.492-25.334-34.282-42.434-55.849-50.821-16.032-6.166-43.206-9.302-80.717-9.302h-91.273v354.813h92.982Z"/><path d="M56.004,751.517V250.442h172.607c38.965,0,68.701,2.393,89.209,7.178,28.711,6.612,53.203,18.575,73.486,35.889,26.431,22.334,46.196,50.875,59.302,85.62,13.101,34.751,19.653,74.458,19.653,119.116,0,38.057-4.443,71.778-13.33,101.172s-20.283,53.721-34.18,72.974c-13.901,19.258-29.111,34.409-45.63,45.459-16.523,11.055-36.46,19.429-59.814,25.122-23.359,5.698-50.19,8.545-80.493,8.545H56.004ZM122.312,692.386h106.982c33.037,0,58.96-3.076,77.759-9.229s33.779-14.81,44.946-25.977c15.723-15.723,27.969-36.855,36.743-63.403,8.77-26.543,13.159-58.73,13.159-96.558,0-52.407-8.604-92.68-25.806-120.825-17.207-28.14-38.11-46.997-62.72-56.567-17.773-6.836-46.372-10.254-85.791-10.254h-105.273v382.813Z"/><path d="M42.004,748.239c30.088-1.069,72.95-2.757,125.008-5.374,66.226-3.329,85.171-5.043,108.663-17.89,21.225-11.607,20.875-18.518,56.982-40.196,33.655-20.206,42.311-19.216,58.307-34.454,18.57-17.69,13.296-37.877,35.337-60.515,20.909-21.475,40.564-22.601,56.888-79.945.176-.619.69-2.209,2.1-3.678,3.803-3.961,10.737-3.329,15.441-2.388-2.65,89.087-5.301,178.175-7.951,267.262-150.258,3.902-300.517,7.804-450.775,11.706,0-11.509,0-23.019,0-34.528Z" fill="#0071bc" opacity=".5"/></g></svg>